<?xml version="1.0" encoding="UTF-8"?>
<svg width="700pt" height="700pt" version="1.1" viewBox="0 0 700 700" xmlns="http://www.w3.org/2000/svg" xmlns:xlink="http://www.w3.org/1999/xlink">
  <path d="m602 0h-504c-7.4258 0-14.547 2.9492-19.801 8.1992-5.25 5.2539-8.1992 12.375-8.1992 19.801v410.67c0 7.4258 2.9492 14.547 8.1992 19.797 5.2539 5.25 12.375 8.2031 19.801 8.2031h185.73c-5.5078 30.176-36.707 37.184-38.266 37.52h-0.003906c-9.5391 0.47656-18.535 4.5938-25.133 11.504-6.5977 6.9102-10.297 16.086-10.332 25.641 0 4.9531 1.9648 9.6992 5.4688 13.199 3.5 3.5039 8.2461 5.4688 13.199 5.4688h242.66c4.9531 0 9.6992-1.9648 13.199-5.4688 3.5039-3.5 5.4688-8.2461 5.4688-13.199-0.035156-9.5547-3.7344-18.73-10.332-25.641-6.5977-6.9102-15.594-11.027-25.133-11.504-1.4648-0.29688-32.797-7.0273-38.266-37.52h185.73c7.4258 0 14.547-2.9531 19.801-8.2031 5.25-5.25 8.1992-12.371 8.1992-19.797v-410.67c0-7.4258-2.9492-14.547-8.1992-19.801-5.2539-5.25-12.375-8.1992-19.801-8.1992zm-504 18.668h504c2.4766 0 4.8477 0.98047 6.6016 2.7305 1.75 1.7539 2.7305 4.125 2.7305 6.6016v364h-522.66v-364c0-5.1562 4.1758-9.332 9.332-9.332zm373.33 522.66h-242.66c0-4.9492 1.9648-9.6992 5.4648-13.199s8.25-5.4648 13.199-5.4648h205.34c4.9453 0.011719 9.6875 1.9805 13.184 5.4805 3.5 3.4961 5.4688 8.2383 5.4805 13.184zm-55.234-37.332h-132.21c10.426-9.875 17.074-23.078 18.797-37.332h94.641c1.7227 14.254 8.3711 27.457 18.797 37.332zm185.9-56h-504c-5.1562 0-9.332-4.1797-9.332-9.332v-28h522.66v28c0 2.4727-0.98047 4.8477-2.7305 6.5977-1.7539 1.75-4.125 2.7344-6.6016 2.7344z" fill="#ffffff"/>
  <path d="m126 373.33h448c4.9492 0 9.6992-1.9648 13.199-5.4648s5.4688-8.25 5.4688-13.199v-298.67c0-4.9492-1.9688-9.6992-5.4688-13.199s-8.25-5.4688-13.199-5.4688h-448c-4.9492 0-9.6992 1.9688-13.199 5.4688s-5.4688 8.25-5.4688 13.199v298.67c0 4.9492 1.9688 9.6992 5.4688 13.199s8.25 5.4648 13.199 5.4648zm0-317.33h448v298.67h-448z" fill="#ffffff"/>
  <path d="m350 242.67c9.9023 0 19.398-3.9336 26.398-10.938 7-7 10.934-16.496 10.934-26.398 0-9.8984-3.9336-19.395-10.934-26.398-7-7-16.496-10.934-26.398-10.934s-19.398 3.9336-26.398 10.934c-7 7.0039-10.934 16.5-10.934 26.398 0 9.9023 3.9336 19.398 10.934 26.398 7 7.0039 16.496 10.938 26.398 10.938zm0-56c4.9492 0 9.6992 1.9648 13.199 5.4648s5.4688 8.25 5.4688 13.199c0 4.9531-1.9688 9.6992-5.4688 13.199-3.5 3.5039-8.25 5.4688-13.199 5.4688s-9.6992-1.9648-13.199-5.4688c-3.5-3.5-5.4688-8.2461-5.4688-13.199 0-4.9492 1.9688-9.6992 5.4688-13.199s8.25-5.4648 13.199-5.4648z" fill="#ffffff"/>
  <path d="m456.77 98.57c-22.094-22.094-63.465-18.164-106.77 6.3359-43.289-24.5-84.691-28.438-106.77-6.3359-22.074 22.102-18.152 63.465 6.3477 106.77-24.5 43.289-28.43 84.68-6.3477 106.77v-0.003906c10.652 9.9961 24.898 15.254 39.492 14.57 23.82-1.1953 46.961-8.3789 67.273-20.879 20.312 12.5 43.453 19.684 67.273 20.879 14.586 0.69141 28.832-4.5508 39.492-14.535 22.082-22.082 18.152-63.465-6.3477-106.77 24.5-43.32 28.43-84.715 6.3477-106.8zm-200.33 13.195c7.1836-6.5312 16.699-9.8984 26.395-9.332 17.145 0.94922 33.855 5.7344 48.906 14-27.531 19.207-51.445 43.133-70.645 70.672-16.035-31.922-19.059-60.945-4.6562-75.34zm93.566 14.953c31.477 20.312 58.254 47.113 78.531 78.613-20.25 31.5-47.031 58.281-78.531 78.531-31.5-20.25-58.281-47.031-78.531-78.531 20.277-31.5 47.055-58.301 78.531-78.613zm-93.566 172.18c-14.402-14.391-11.379-43.418 4.668-75.375 19.223 27.539 43.133 51.484 70.641 70.746-31.938 15.988-60.934 18.996-75.309 4.6289zm187.13 0c-14.383 14.363-43.383 11.359-75.312-4.668l0.003906 0.003906c13.746-9.582 26.605-20.379 38.422-32.258 11.875-11.84 22.66-24.723 32.23-38.488 16.035 31.992 19.059 61.02 4.6562 75.41zm-4.668-111.76v0.003906c-19.195-27.539-43.113-51.465-70.641-70.676 15.047-8.2617 31.762-13.047 48.906-14 9.6953-0.5625 19.207 2.8008 26.395 9.3359 14.41 14.355 11.387 43.379-4.6484 75.34z" fill="#ffffff"/>
</svg>
