<?xml version="1.0" encoding="UTF-8"?>
<svg width="700pt" height="700pt" version="1.1" viewBox="0 0 700 700" xmlns="http://www.w3.org/2000/svg" xmlns:xlink="http://www.w3.org/1999/xlink">
  <path d="m536.76 73.922h-155.68c-10.559 0-19.281 8.6406-19.281 19.281v155.68c0 10.559 8.7188 19.199 19.281 19.199h155.68c10.641 0 19.281-8.6406 19.281-19.199l-0.003907-155.68c0-10.641-8.6406-19.277-19.277-19.277zm-28.48 106.8c-2.5586 2.4805-6 4-9.6797 4h-25.918v26c0 7.5195-6.2383 13.68-13.758 13.68-3.7617 0-7.1992-1.5195-9.6797-4.082-2.4805-2.4805-4-5.8398-4-9.6016v-26h-25.918c-7.6016 0-13.762-6.1602-13.762-13.68 0-3.7578 1.6016-7.1992 4-9.6797 2.5586-2.4805 5.9219-4 9.7617-4h25.918v-26c0-7.5195 6.1602-13.68 13.68-13.68 3.8398 0 7.1992 1.5195 9.6797 4.082 2.4805 2.4805 4.082 5.8398 4.082 9.5977v26h25.918c7.5195 0 13.68 6.082 13.68 13.68-0.003906 3.7656-1.5234 7.207-4.0039 9.6836z" fill="#ffffff"/>
  <path d="m536.76 291.84h-155.68c-10.559 0-19.281 8.6406-19.281 19.281v155.6c0 10.641 8.7188 19.359 19.281 19.359h155.68c10.641 0 19.281-8.7188 19.281-19.359l-0.003907-155.6c0-10.641-8.6406-19.281-19.277-19.281zm-28.48 131.2c-2.4805 2.5586-5.918 4.082-9.6797 4.082h-79.281c-7.6016 0-13.762-6.1602-13.762-13.762 0-3.7578 1.5195-7.1211 4-9.6016 2.5586-2.4805 5.9219-4.082 9.7617-4.082h79.281c7.5195 0 13.68 6.1602 13.68 13.68 0 3.8438-1.5195 7.2031-4 9.6836zm0-48.879c-2.4805 2.4805-5.918 4.082-9.6797 4.082h-79.281c-7.6016 0-13.762-6.2422-13.762-13.762 0-3.7578 1.5195-7.1992 4-9.6797 2.5586-2.4805 5.9219-4 9.7617-4h79.281c7.5195 0 13.68 6.1602 13.68 13.68 0 3.7617-1.5195 7.1992-4 9.6797z" fill="#ffffff"/>
  <path d="m318.84 73.922h-155.68c-10.559 0-19.199 8.7188-19.199 19.281v155.68c0 10.559 8.6406 19.199 19.199 19.199h155.68c10.641 0 19.281-8.6406 19.281-19.199v-155.68c0-10.559-8.6406-19.277-19.281-19.277zm-28.48 106.8c-2.4805 2.4805-5.918 4-9.6797 4h-79.281c-7.6016 0-13.762-6.1602-13.762-13.68 0-3.7578 1.5195-7.1992 4.082-9.6797 2.4805-2.4805 5.8398-4.0781 9.6797-4.0781h79.281c7.5195 0 13.68 6.1602 13.68 13.758 0 3.7617-1.5195 7.1211-4 9.6797z" fill="#ffffff"/>
  <path d="m318.84 291.84h-155.6c-10.641 0-19.281 8.7188-19.281 19.281v155.68c0 10.559 8.6406 19.199 19.281 19.199h155.6c10.559 0 19.281-8.6406 19.281-19.199v-155.68c0-10.562-8.7227-19.281-19.281-19.281zm-40.078 115.44c5.2812 5.3594 5.2812 14.078 0 19.359-2.6406 2.7188-6.1602 4-9.6797 4s-7.0391-1.2812-9.6797-3.918l-18.398-18.398-18.32 18.32c-5.3594 5.3594-14 5.3594-19.359 0-2.6406-2.6406-4-6.1602-4.082-9.6797 0.082031-3.4414 1.4414-6.9609 4.082-9.6797l18.32-18.32-18.398-18.398c-5.2812-5.2812-5.2812-14 0.082031-19.359 2.6406-2.6406 6.1602-4 9.6797-4 3.5195 0 6.9609 1.3594 9.6797 4l18.32 18.32 18.398-18.32c5.3594-5.2812 14.082-5.3594 19.359 0 2.7188 2.6406 4 6.2383 4 9.7578 0 3.4414-1.3594 6.9609-4 9.6016l-18.32 18.398z" fill="#ffffff"/>
</svg>
