<?xml version="1.0" encoding="UTF-8"?>
<svg width="700pt" height="700pt" version="1.1" viewBox="0 0 700 700" xmlns="http://www.w3.org/2000/svg" xmlns:xlink="http://www.w3.org/1999/xlink">
  <path d="m275.8 11.375c-27.578 0-51.129 17.035-60.84 41.137 32.09 7.7344 56.996 35.527 59.711 69.562 0.29688 3.6836-1.7969 7.1445-5.1953 8.6016-27.344 11.715-40.582 43.719-29.508 71.34 1.7695 4.4141-0.375 9.4297-4.7891 11.199-1.0547 0.42188-2.1406 0.62109-3.2031 0.62109-3.4141 0-6.6484-2.043-7.9961-5.4102-5-12.473-6.2109-25.621-4.1953-38.137-25.598 3.6289-46.004 25.016-47.395 51.812-0.24219 4.5977-4.043 8.1719-8.5977 8.1719-0.15234 0-0.30078-0.003907-0.45312-0.011719-4.75-0.24609-8.3984-4.2969-8.1523-9.0508 1.9609-37.773 32.664-67.363 69.793-68.633 6.3047-14.492 17.246-26.98 31.781-34.859-5.0781-28.539-30.348-50.133-59.891-50.133-13.945 0-27.379 4.7422-37.98 13.352-18.211 14.777-22.809 39.945-17.371 52.574-22.121 15.316-36.617 40.863-36.617 69.805 0 8.8242 1.3477 17.336 3.8516 25.34l-0.011718 0.003906 0.089843 0.125c-25.953 18.938-33.223 56.82-15.68 81.512 9.25 13.02 26.074 25.289 42.133 27.797 12.98 2.0312 25.969-0.125 37.402-6.0742-1.0352-2.5938-1.8984-5.2734-2.5664-8.0352-3.707-15.301-1.2383-31.125 6.957-44.566 2.4766-4.0586 7.7734-5.3477 11.84-2.8711 4.0586 2.4766 5.3477 7.7773 2.8672 11.84-5.7969 9.5078-7.5469 20.707-4.9219 31.539 2.625 10.824 9.3086 19.98 18.82 25.781 13.469 8.2109 30.191 8.1641 43.629-0.11328 4.0469-2.4961 9.3594-1.2305 11.848 2.8125 2.4961 4.0469 1.2383 9.3594-2.8164 11.848-9.5352 5.875-20.242 8.8125-30.945 8.8125-10.605 0-21.211-2.8828-30.684-8.6562-5.9805-3.6445-11.168-8.2383-15.41-13.551-11.262 6.0273-23.695 9.2188-36.445 9.2188-4.0664 0-8.1523-0.3125-12.242-0.95703-8.9023-1.3945-17.344-4.2578-25.047-8.4102-1.7305 6.7461-2.6641 13.816-2.6641 21.105 0 29.121 14.672 54.801 37.016 70.09 2.1523 42.684 35.852 77.027 78.242 80.246 11.602 18.512 32.172 30.828 55.629 30.828 30.66 0 55.484-20.715 63.605-48.883 1.1641-4.0391 2.0156-8.8867 2.0156-13.422 0 0-0.023437-411.53-0.066406-412.29-1.3711-35.031-30.184-63.008-65.547-63.008zm15.176 453.34c-10.781 11.465-25.496 17.668-40.684 17.668-5.2461 0-10.543-0.73828-15.758-2.2617-14.348-4.1758-26.207-13.699-33.398-26.797-7.1914-13.098-8.8477-28.219-4.6641-42.566 1.332-4.5703 6.1133-7.1797 10.68-5.8633 4.5703 1.332 7.1914 6.1133 5.8633 10.68-5.9688 20.496 5.8477 42.035 26.344 48.004 14.066 4.0977 29.035 0.011719 39.07-10.672 3.2578-3.4648 8.707-3.6328 12.176-0.375 3.457 3.2656 3.625 8.7188 0.37109 12.184zm265.86-108.64c-12.75 0-25.184-3.1875-36.445-9.2109-4.2461 5.3125-9.4297 9.9062-15.41 13.551-9.4688 5.7734-20.074 8.6562-30.684 8.6562-10.707 0-21.41-2.9414-30.945-8.8125-4.0469-2.4922-5.3086-7.8008-2.8164-11.848 2.4961-4.0469 7.8008-5.3125 11.848-2.8125 13.441 8.2773 30.156 8.3203 43.629 0.11328 9.5078-5.8008 16.195-14.957 18.82-25.781s0.87891-22.023-4.9219-31.539c-2.4766-4.0586-1.1914-9.3633 2.8672-11.84 4.0664-2.4805 9.3633-1.1914 11.84 2.8711 8.1914 13.441 10.664 29.266 6.957 44.566-0.66797 2.7617-1.5273 5.4375-2.5664 8.0312 11.434 5.957 24.422 8.1133 37.402 6.0859 16.062-2.5156 30.23-11.098 39.762-24.266 17.617-24.336 15.332-63.422-13.312-85.035l0.089844-0.125-0.027344-0.023437c2.5039-8.0039 3.8711-16.504 3.8711-25.328 0-28.941-14.5-54.488-36.617-69.805 4.0391-12.629 0-39.344-17.859-53.07-10.617-8.1602-23.695-12.859-37.375-12.859-29.547 0-54.809 21.594-59.891 50.133 14.531 7.8789 25.473 20.367 31.781 34.859 37.133 1.2773 67.84 30.863 69.793 68.633 0.24609 4.75-3.4062 8.8047-8.1523 9.0508-0.15234 0.003906-0.30078 0.011719-0.45312 0.011719-4.5547 0-8.3555-3.5664-8.5977-8.1719-1.3906-26.797-21.758-48.211-47.395-51.824 2.0156 12.516 0.80469 25.672-4.1953 38.148-1.3477 3.3672-4.582 5.4102-7.9961 5.4102-1.0703 0-2.1523-0.20312-3.2031-0.62109-4.4141-1.7695-6.5586-6.7891-4.7891-11.199 11.078-27.621-2.1602-59.625-29.508-71.34-3.3984-1.457-5.4883-4.918-5.1953-8.6016 2.7539-34.457 28.246-62.5 60.91-69.828-9.7734-23.961-33.246-40.879-60.723-40.879-32.465 0-58.238 23.336-64.902 54.027-0.74609 3.4375-1.1641 7.5312-1.1641 11.285v409.98c0 5.4141 1.2266 11.094 2.8281 15.781 9.1797 26.867 33.141 46.523 62.973 46.523 23.496 0 44.102-12.359 55.691-30.922 41.82-3.7812 74.895-37.879 77.027-80.152 22.344-15.289 37.016-40.969 37.016-70.09 0-7.293-0.93359-14.359-2.6641-21.105-7.707 4.1562-16.141 7.0156-25.047 8.4102-4.1016 0.64844-8.1914 0.96094-12.25 0.96094zm-56.27 97.262c-7.1914 13.098-19.051 22.617-33.398 26.801-5.2148 1.5195-10.516 2.2578-15.758 2.2578-15.188 0-29.902-6.2031-40.684-17.668-3.2578-3.4648-3.0898-8.9219 0.375-12.176 3.4648-3.2656 8.9141-3.0898 12.176 0.375 10.039 10.68 25.008 14.762 39.07 10.672 9.9297-2.8945 18.137-9.4805 23.117-18.547 4.9727-9.0664 6.1211-19.527 3.2305-29.457-1.332-4.5703 1.293-9.3516 5.8594-10.68 4.5703-1.332 9.3477 1.293 10.68 5.8594 4.1797 14.344 2.5234 29.457-4.668 42.562z" fill="#ffffff"/>
</svg>
